HIERARCHY
ROOT Hips
{
    OFFSET 0.000000 0.000000 0.000000
    CHANNELS 6 Xposition Yposition Zposition Zrotation Xrotation Yrotation
    JOINT Spine
    {
        OFFSET -0.000000 0.081343 0.000000
        CHANNELS 3 Zrotation Xrotation Yrotation
        JOINT Spine1
        {
            OFFSET -0.000000 0.243280 0.000000
            CHANNELS 3 Zrotation Xrotation Yrotation
            JOINT Neck
            {
                OFFSET -0.000000 0.242281 0.022026
                CHANNELS 3 Zrotation Xrotation Yrotation
                JOINT Head
                {
                    OFFSET -0.000000 0.149025 -0.021289
                    CHANNELS 3 Zrotation Xrotation Yrotation
                    End Site
                    {
                        OFFSET -0.000000 0.198396 0.000000
                    }
                }
            }
            JOINT LeftShoulder
            {
                OFFSET 0.039707 0.224479 -0.002125
                CHANNELS 3 Zrotation Xrotation Yrotation
                JOINT LeftArm
                {
                    OFFSET 0.116942 0.000000 0.000000
                    CHANNELS 3 Zrotation Xrotation Yrotation
                    JOINT LeftForeArm
                    {
                        OFFSET 0.282002 0.000000 0.000000
                        CHANNELS 3 Zrotation Xrotation Yrotation
                        JOINT LeftHand
                        {
                            OFFSET 0.358743 0.000000 0.000000
                            CHANNELS 3 Zrotation Xrotation Yrotation
                            End Site
                            {
                                OFFSET 0.148797 0.000000 0.000000
                            }
                        }
                    }
                }
            }
            JOINT RightShoulder
            {
                OFFSET -0.039404 0.224479 -0.002125
                CHANNELS 3 Zrotation Xrotation Yrotation
                JOINT RightArm
                {
                    OFFSET -0.116942 0.000000 0.000000
                    CHANNELS 3 Zrotation Xrotation Yrotation
                    JOINT RightForeArm
                    {
                        OFFSET -0.282002 0.000000 0.000000
                        CHANNELS 3 Zrotation Xrotation Yrotation
                        JOINT RightHand
                        {
                            OFFSET -0.358743 0.000000 0.000000
                            CHANNELS 3 Zrotation Xrotation Yrotation
                            End Site
                            {
                                OFFSET -0.148797 0.000000 0.000000
                            }
                        }
                    }
                }
            }
        }
    }
    JOINT LeftUpLeg
    {
        OFFSET 0.099198 0.000000 0.000000
        CHANNELS 3 Zrotation Xrotation Yrotation
        JOINT LeftLeg
        {
            OFFSET -0.000000 -0.332973 0.000000
            CHANNELS 3 Zrotation Xrotation Yrotation
            JOINT LeftFoot
            {
                OFFSET -0.000000 -0.491254 0.000000
                CHANNELS 3 Zrotation Xrotation Yrotation
                JOINT LeftToeBase
                {
                    OFFSET -0.000000 -0.064479 0.148797
                    CHANNELS 3 Zrotation Xrotation Yrotation
                    End Site
                    {
                        OFFSET -0.000000 0.000000 0.039679
                    }
                }
            }
        }
    }
    JOINT RightUpLeg
    {
        OFFSET -0.099198 0.000000 0.000000
        CHANNELS 3 Zrotation Xrotation Yrotation
        JOINT RightLeg
        {
            OFFSET -0.000000 -0.332973 0.000000
            CHANNELS 3 Zrotation Xrotation Yrotation
            JOINT RightFoot
            {
                OFFSET -0.000000 -0.491254 0.000000
                CHANNELS 3 Zrotation Xrotation Yrotation
                JOINT RightToeBase
                {
                    OFFSET -0.000000 -0.064479 0.148797
                    CHANNELS 3 Zrotation Xrotation Yrotation
                    End Site
                    {
                        OFFSET -0.000000 0.000000 0.039679
                    }
                }
            }
        }
    }
}
MOTION
Frames:    9
Frame Time:    0.010000
-0.333094    0.879316    -0.018325    0.113519    1.507422    -23.749979    0.240199    -1.563079    6.730411    -3.883205    3.183687    2.355913    9.052263    22.979565    30.820108    -18.937811    -7.447104    29.074011    -9.630880    12.741890    13.171177    -46.787666    -17.831089    -12.036606    38.536915    -48.192413    -102.104248    66.151360    -3.727583    -2.509948    1.119890    12.095797    7.674431    36.371731    2.792984    6.620314    -66.582489    -44.040154    42.092918    -32.703491    -20.079626    3.226198    15.536377    -14.162397    6.108225    -11.585568    24.095217    11.414351    1.183791    -10.372098    12.603680    0.000000    0.000000    0.000000    -8.887670    -6.907032    -12.679592    1.714032    21.051378    -6.288352    12.430112    -11.831786    -1.358363    0.000000    0.000000    0.000000    
-0.334752    0.879297    -0.019298    0.109187    1.564562    -23.587494    0.353406    -1.559608    6.637525    -3.996076    3.204861    2.328292    9.058981    22.872936    30.803368    -18.929342    -7.602179    29.023232    -9.512837    12.707924    13.175626    -46.814999    -17.805485    -12.140912    38.889671    -48.347797    -101.650322    66.121384    -3.731758    -2.323148    0.991753    11.984468    7.626616    36.336769    3.430576    6.558192    -67.480667    -44.040237    41.257217    -32.323135    -20.253254    3.381289    15.812577    -14.296358    6.091107    -12.012589    24.037907    11.981866    1.169576    -10.188328    12.835938    0.000000    0.000000    0.000000    -8.694885    -6.900563    -12.553950    1.740085    20.989809    -6.536109    12.326582    -11.955062    -1.386139    0.000000    0.000000    0.000000    
-0.336220    0.879287    -0.020135    0.131681    1.602054    -23.424196    0.341493    -0.975744    6.729698    -4.130639    2.290695    2.330129    9.412481    22.843826    30.619698    -18.934835    -7.396445    28.881157    -9.387125    13.032948    13.228470    -46.790855    -17.478399    -12.303801    39.474121    -48.633030    -101.072166    66.097534    -3.617792    -2.039907    1.177872    12.164073    6.941022    35.958897    3.697192    6.583055    -66.922623    -44.277897    41.990852    -33.694260    -19.962910    2.011254    15.992678    -14.387093    6.229685    -12.310386    23.961487    12.293708    1.237734    -10.003807    13.147152    0.000000    0.000000    0.000000    -8.543232    -6.887519    -12.421437    1.753184    20.924723    -6.851996    12.278467    -12.034033    -1.358059    0.000000    0.000000    0.000000    
-0.337493    0.879233    -0.020882    0.168123    1.638797    -23.257971    0.561167    -1.444470    6.609532    -4.419222    3.091876    2.325414    9.450310    22.660892    30.664768    -19.028196    -7.649776    28.854784    -9.044514    12.803529    12.969617    -46.989872    -17.791466    -12.352646    39.503757    -48.622066    -100.947578    66.086189    -3.621010    -1.938052    1.007024    11.813631    7.205635    35.955185    3.632606    6.351940    -67.410744    -43.985641    41.445541    -31.606159    -20.226343    4.026594    16.111687    -14.453204    6.275457    -12.587087    23.836502    12.842842    1.263410    -9.890924    13.240471    0.000000    0.000000    0.000000    -8.420531    -6.901836    -12.271316    1.782292    20.833332    -7.266725    12.578626    -11.902926    -1.338586    0.000000    0.000000    0.000000    
-0.338708    0.879228    -0.021429    0.179495    1.663148    -23.097401    0.604404    -0.934305    6.608223    -4.579554    2.249331    2.296202    9.689029    22.821964    30.560129    -19.079370    -7.549716    28.781088    -8.825668    12.719904    13.134280    -46.980770    -17.376905    -12.268550    39.602566    -48.678761    -100.736397    66.047684    -3.699183    -1.829127    1.143866    12.251559    6.710179    35.661446    3.602018    6.533105    -67.251480    -43.932693    41.708153    -31.323921    -20.103577    4.290148    16.212236    -14.501213    6.834799    -12.586055    23.843945    12.856847    1.353169    -9.762273    13.270020    0.000000    0.000000    0.000000    -8.288280    -6.841799    -12.064528    1.836467    20.729568    -7.693321    12.531779    -11.954066    -1.293354    0.000000    0.000000    0.000000    
-0.339797    0.879241    -0.021483    0.178003    1.651372    -22.904625    0.732763    -0.931204    6.520457    -4.754579    2.212468    2.268524    9.878428    23.005987    30.506378    -19.308523    -7.636366    28.696342    -8.661994    12.617901    13.004789    -46.984047    -17.408529    -12.127345    39.660686    -48.732147    -100.583328    65.809921    -3.815249    -1.785434    1.168346    12.112791    6.699119    35.396290    3.528260    6.283474    -67.061005    -43.876167    41.910931    -31.838638    -19.958384    4.135709    16.213057    -14.432027    7.300659    -12.442281    23.758890    12.756980    1.445119    -9.704740    13.127534    0.000000    0.000000    0.000000    -8.197954    -6.668571    -11.846018    1.947370    20.565466    -8.161006    12.453601    -12.015756    -1.250736    0.000000    0.000000    0.000000    
-0.340773    0.879320    -0.021713    0.197693    1.644358    -22.802465    0.920372    -1.395138    6.410509    -4.966805    3.052115    2.270575    9.892378    22.756001    30.590828    -19.413425    -7.698140    28.731625    -8.375465    12.274485    12.898853    -47.250965    -17.640217    -12.130069    39.930584    -48.768017    -100.152870    64.847572    -4.210694    -2.330054    0.899460    11.814100    6.894622    35.176624    2.583653    5.967870    -65.020851    -43.933800    43.981609    -31.850792    -19.586004    4.014268    16.157417    -14.379564    8.164330    -11.989650    23.785873    12.117072    1.485491    -9.597974    12.903403    0.000000    0.000000    0.000000    -8.103930    -6.580283    -11.562547    2.011007    20.456326    -8.544119    12.410588    -12.091526    -1.247506    0.000000    0.000000    0.000000    
-0.341646    0.879420    -0.021853    0.200455    1.641537    -22.708603    0.987548    -1.371303    6.360178    -5.022302    2.992363    2.252466    9.910171    22.847757    30.589647    -19.473806    -7.709208    28.727180    -8.323075    12.181293    12.866884    -47.107845    -17.907469    -12.078899    38.917553    -48.417778    -101.064690    65.976807    -4.029704    -1.725470    0.755027    11.393595    6.822669    35.089272    2.568637    5.621864    -64.150742    -43.909588    44.850578    -31.940439    -19.428448    4.073523    16.031555    -14.242719    8.543837    -11.540346    23.613277    11.665876    1.362594    -9.574487    12.751120    0.000000    0.000000    0.000000    -7.988005    -6.563253    -11.245645    2.032429    20.456413    -9.058332    12.453475    -12.085325    -1.144146    0.000000    0.000000    0.000000    
-0.342442    0.879539    -0.022176    0.213389    1.665678    -22.685558    0.915612    -0.887974    6.409081    -4.950637    2.134881    2.231308    10.050708    23.006069    30.520454    -19.483486    -7.391473    28.730461    -8.420575    12.309445    13.017361    -46.958748    -17.841995    -12.010259    38.622135    -48.329002    -101.269043    66.022308    -4.169975    -1.721081    0.720416    11.339743    6.520083    34.947659    2.537463    5.364629    -63.330544    -43.921616    45.710548    -32.048256    -19.304501    4.116155    15.731950    -14.306019    9.825846    -10.299111    23.849659    10.729959    0.763453    -9.577409    12.034462    0.000000    0.000000    0.000000    -7.882079    -6.596041    -10.810688    2.143081    20.352016    -9.459732    12.717397    -11.882450    -1.359354    0.000000    0.000000    0.000000    
